<svg width="5553" height="2676" viewBox="0 0 5553 2676" fill="none" xmlns="http://www.w3.org/2000/svg">
<g filter="url(#filter0_f_155_201)">
<ellipse cx="2776.5" cy="1338" rx="2276.5" ry="838" fill="url(#paint0_linear_155_201)" fill-opacity="0.8"/>
</g>
<path d="M3499.21 624.858C3499.41 624.738 3499.66 624.738 3499.86 624.858L3839.2 825.697C3839.4 825.813 3839.52 826.024 3839.52 826.251V1229.33C3839.52 1229.55 3839.4 1229.77 3839.2 1229.88L3499.86 1430.72C3499.66 1430.84 3499.41 1430.84 3499.21 1430.72L3159.87 1229.88C3159.67 1229.77 3159.55 1229.55 3159.55 1229.33V826.251C3159.55 826.024 3159.67 825.813 3159.87 825.697L3499.21 624.858L3483.14 597.705L3499.21 624.858Z" stroke="url(#paint1_linear_155_201)" stroke-width="63.103"/>
<path d="M3465.08 1128.31L3535.25 927.07" stroke="url(#paint2_linear_155_201)" stroke-width="63.103" stroke-linecap="round"/>
<path d="M3633.3 1106.61L3709.25 1030.78C3711.77 1028.26 3711.77 1024.19 3709.25 1021.68L3633.3 945.837" stroke="url(#paint3_linear_155_201)" stroke-width="63.103" stroke-linecap="round" stroke-linejoin="round"/>
<path d="M3367.65 945.837L3291.7 1021.68C3289.18 1024.19 3289.18 1028.26 3291.7 1030.78L3367.65 1106.61" stroke="url(#paint4_linear_155_201)" stroke-width="63.103" stroke-linecap="round" stroke-linejoin="round"/>
<g filter="url(#filter1_d_155_201)">
<path d="M1324.52 1347.77C1335 1349.13 1346.16 1352.55 1358.01 1358.02C1369.86 1363.49 1380.8 1371.24 1390.82 1381.26C1401.31 1391.29 1409.96 1403.59 1416.8 1418.18C1423.64 1432.3 1427.05 1448.71 1427.05 1467.39C1427.05 1490.18 1423.64 1509.78 1416.8 1526.18C1409.96 1542.59 1401.31 1556.26 1390.82 1567.2C1380.8 1577.68 1369.63 1586.11 1357.33 1592.49C1345.48 1598.42 1333.86 1602.97 1322.46 1606.16C1311.53 1609.35 1301.73 1611.4 1293.07 1612.32C1284.41 1612.77 1278.71 1613 1275.98 1613H1196.68V1552.84H1271.2C1295.35 1552.84 1314.26 1545.1 1327.93 1529.6C1341.61 1514.11 1348.44 1493.37 1348.44 1467.39C1348.44 1442.79 1341.38 1422.05 1327.25 1405.19C1313.12 1388.33 1292.39 1379.89 1265.04 1379.89H1196.68V1324.52H1229.5C1239.52 1324.52 1249.78 1324.3 1260.26 1323.84C1270.74 1323.38 1280.54 1320.88 1289.65 1316.32C1298.77 1311.76 1306.06 1304.02 1311.53 1293.08C1317.45 1282.14 1320.41 1266.42 1320.41 1245.91C1320.41 1237.71 1319.27 1229.28 1317 1220.62C1314.72 1211.5 1310.16 1203.3 1303.32 1196.01C1296.49 1188.72 1286.69 1182.79 1273.93 1178.23C1261.17 1173.68 1244.31 1171.4 1223.34 1171.4H1196.68V1109.19H1231.55C1252.97 1109.19 1273.7 1111.7 1293.75 1116.71C1313.81 1121.72 1331.58 1129.7 1347.07 1140.64C1362.57 1151.57 1374.87 1165.93 1383.99 1183.7C1393.1 1201.02 1397.66 1221.76 1397.66 1245.91C1397.66 1260.04 1395.38 1273.03 1390.82 1284.88C1386.27 1296.27 1380.57 1306.29 1373.73 1314.95C1366.9 1323.61 1358.92 1330.9 1349.81 1336.83C1341.15 1342.3 1332.72 1345.94 1324.52 1347.77ZM1086.62 1109.19H1168.66V1613H1086.62V1109.19ZM1612.31 1227.45L1621.2 1267.1V1476.28V1477.65V1613H1538.48V1227.45H1612.31ZM1649.22 1244.54C1660.62 1238.16 1674.29 1233.38 1690.24 1230.19C1706.19 1226.54 1727.84 1224.72 1755.18 1224.72V1310.85C1742.42 1307.21 1726.92 1305.15 1708.7 1304.7C1698.67 1304.7 1688.42 1305.61 1677.93 1307.43C1667.91 1308.8 1658.34 1311.08 1649.22 1314.27V1244.54ZM1926.08 1613H1842.68V1227.45H1926.08V1613ZM1933.6 1104.41C1933.6 1118.08 1928.81 1129.7 1919.24 1139.27C1909.67 1148.38 1898.05 1152.94 1884.38 1152.94C1870.71 1152.94 1859.09 1148.16 1849.52 1138.59C1840.4 1129.02 1835.84 1117.62 1835.84 1104.41C1835.84 1090.73 1840.63 1079.11 1850.2 1069.54C1859.77 1059.97 1871.16 1055.19 1884.38 1055.19C1898.05 1055.19 1909.67 1059.97 1919.24 1069.54C1928.81 1079.11 1933.6 1090.73 1933.6 1104.41ZM2182.43 1616.42C2156.9 1616.42 2134.57 1610.95 2115.43 1600.01C2096.29 1588.62 2080.34 1573.58 2067.58 1554.89C2054.82 1536.21 2045.48 1514.79 2039.55 1490.64C2033.63 1466.48 2030.67 1441.19 2030.67 1414.76C2030.67 1379.21 2035.45 1349.36 2045.02 1325.21C2055.05 1301.05 2067.58 1281.46 2082.62 1266.42C2098.12 1250.92 2115.21 1239.99 2133.89 1233.61C2153.03 1227.23 2171.72 1224.04 2189.95 1224.04C2204.07 1224.04 2217.52 1225.63 2230.28 1228.82C2243.04 1232.01 2254.66 1236.57 2265.14 1242.49V1314.95C2257.85 1306.75 2249.19 1300.14 2239.16 1295.13C2229.59 1290.12 2219.11 1287.61 2207.72 1287.61C2194.05 1287.61 2181.51 1291.26 2170.12 1298.55C2159.18 1305.38 2149.84 1314.73 2142.09 1326.57C2134.35 1338.42 2128.42 1352.32 2124.32 1368.27C2120.22 1384.22 2118.17 1401.09 2118.17 1418.86C2118.17 1437.09 2120.22 1454.41 2124.32 1470.81C2128.88 1486.76 2135.03 1500.66 2142.78 1512.51C2150.98 1524.36 2160.55 1533.93 2171.49 1541.22C2182.88 1548.06 2195.41 1551.48 2209.09 1551.48C2220.48 1551.48 2230.73 1549.2 2239.85 1544.64C2248.96 1539.63 2257.39 1533.25 2265.14 1525.5V1596.59C2254.2 1602.06 2241.67 1606.85 2227.54 1610.95C2213.42 1614.6 2198.38 1616.42 2182.43 1616.42ZM2375.88 1227.45L2375.2 1613C2373.38 1640.8 2367.68 1664.5 2358.11 1684.09C2348.99 1703.69 2337.15 1719.87 2322.56 1732.63C2307.98 1745.39 2291.12 1754.5 2271.98 1759.97C2252.84 1765.44 2232.33 1768.18 2210.45 1768.18C2184.93 1768.18 2159.64 1763.62 2134.57 1754.5C2109.96 1745.85 2089.46 1731.03 2073.05 1710.07L2120.9 1662.9C2125.46 1670.65 2131.16 1677.03 2137.99 1682.04C2145.28 1687.06 2152.58 1690.93 2159.87 1693.66C2167.61 1696.4 2175.13 1698.22 2182.43 1699.13C2190.17 1700.5 2197.01 1701.18 2202.93 1701.18C2231.19 1701.18 2253.29 1692.98 2269.24 1676.57C2285.19 1660.17 2293.17 1632.14 2293.17 1592.49V1266.42L2302.05 1227.45H2375.88ZM2509.18 1081.85H2591.9V1613H2509.18V1081.85ZM2796.29 1269.84C2804.04 1277.58 2809.96 1286.7 2814.07 1297.18C2818.62 1307.21 2821.81 1317.92 2823.64 1329.31C2825.92 1340.25 2827.28 1351.41 2827.74 1362.8C2828.19 1374.2 2828.42 1385.36 2828.42 1396.3V1599.33V1613H2745.02V1403.14C2745.02 1387.64 2744.34 1372.83 2742.97 1358.7C2741.61 1344.58 2738.42 1332.04 2733.4 1321.11C2728.39 1310.17 2721.55 1301.74 2712.89 1295.81C2704.24 1289.43 2692.16 1286.24 2676.66 1286.24C2670.28 1286.24 2661.62 1287.38 2650.69 1289.66C2640.21 1291.48 2629.95 1294.67 2619.93 1299.23V1246.59C2632.23 1240.21 2645.45 1234.74 2659.57 1230.19C2674.16 1225.63 2688.29 1223.35 2701.96 1223.35C2722.46 1223.35 2739.78 1227.68 2753.91 1236.34C2768.04 1244.54 2782.17 1255.71 2796.29 1269.84ZM3035.55 1496.11C3035.55 1511.6 3037.6 1523.68 3041.7 1532.34C3045.8 1540.99 3051.5 1547.6 3058.79 1552.16C3066.54 1556.72 3074.97 1559.68 3084.09 1561.05C3093.66 1561.96 3103.68 1562.41 3114.16 1562.41V1613C3108.24 1613.91 3102.32 1614.6 3096.39 1615.05C3091.38 1615.51 3085.23 1615.73 3077.93 1615.73C3071.1 1616.19 3064.26 1616.42 3057.43 1616.42C3050.59 1616.42 3043.53 1616.19 3036.23 1615.73C3029.4 1615.28 3023.47 1614.6 3018.46 1613.68C3002.97 1610.95 2990.89 1604.34 2982.23 1593.86C2973.57 1582.92 2966.96 1571.07 2962.41 1558.31C2958.3 1545.1 2955.57 1532.34 2954.2 1520.03C2953.29 1507.73 2952.84 1498.16 2952.84 1491.32V1283.51H2902.25V1227.45H2952.84V1118.08H3035.55V1227.45H3097.07V1283.51H3035.55V1496.11ZM3299.42 1109.19V1550.79H3531.16V1613H3216.02V1109.19H3299.42ZM3677.45 1496.79C3677.45 1517.3 3681.55 1532.56 3689.75 1542.59C3698.41 1552.62 3710.71 1558.54 3726.66 1560.36V1615.73C3724.84 1616.19 3721.88 1616.42 3717.78 1616.42C3702.28 1616.42 3687.24 1614.37 3672.66 1610.27C3658.53 1606.16 3646 1599.56 3635.06 1590.44C3624.12 1581.33 3615.47 1569.25 3609.09 1554.21C3603.16 1539.17 3600.2 1520.71 3600.2 1498.84C3600.2 1477.88 3604.53 1459.88 3613.19 1444.84C3622.3 1429.34 3633.7 1416.81 3647.37 1407.24C3661.49 1397.21 3677.45 1389.92 3695.22 1385.36C3712.99 1380.35 3730.99 1377.84 3749.22 1377.84H3779.3V1426.38H3764.26C3755.15 1426.38 3745.58 1427.29 3735.55 1429.11C3725.52 1430.94 3716.18 1434.35 3707.52 1439.37C3698.86 1444.38 3691.57 1451.67 3685.65 1461.24C3680.18 1470.36 3677.45 1482.21 3677.45 1496.79ZM3890.04 1498.84C3890.04 1502.49 3890.27 1507.95 3890.73 1515.25C3891.18 1522.08 3892.09 1529.15 3893.46 1536.44C3894.83 1543.73 3896.88 1550.34 3899.61 1556.26C3902.8 1562.19 3906.9 1566.06 3911.92 1567.88L3890.04 1613.68C3884.12 1613.68 3877.74 1612.32 3870.9 1609.58C3864.52 1606.85 3858.14 1602.97 3851.76 1597.96C3845.84 1592.95 3840.6 1587.48 3836.04 1581.55C3831.94 1575.17 3828.75 1568.34 3826.47 1561.05C3821.91 1572.44 3812.8 1582.69 3799.12 1591.81C3785.91 1600.47 3771.1 1606.85 3754.69 1610.95V1559C3765.63 1556.72 3775.43 1552.39 3784.09 1546.01C3793.2 1539.17 3800.95 1531.2 3807.33 1522.08V1377.84C3807.33 1355.51 3806.19 1337.74 3803.91 1324.52C3801.63 1311.31 3797.76 1301.74 3792.29 1295.81C3786.82 1289.43 3779.98 1285.56 3771.78 1284.19C3764.03 1282.37 3754.69 1281.46 3743.75 1281.46C3733.73 1281.46 3724.16 1282.82 3715.04 1285.56C3706.38 1287.84 3698.18 1290.8 3690.43 1294.45C3683.14 1297.64 3676.53 1301.28 3670.61 1305.38C3665.14 1309.48 3661.04 1312.67 3658.3 1314.95L3627.54 1267.79C3632.1 1262.77 3638.94 1257.76 3648.05 1252.75C3657.17 1247.28 3667.65 1242.49 3679.5 1238.39C3691.35 1234.29 3704.11 1231.1 3717.78 1228.82C3731.9 1226.09 3746.49 1224.72 3761.53 1224.72C3775.2 1224.72 3788.42 1226.09 3801.18 1228.82C3814.39 1231.55 3826.24 1236.11 3836.72 1242.49C3847.66 1248.87 3857 1257.53 3864.75 1268.47C3872.95 1278.95 3878.65 1292.17 3881.84 1308.12C3885.03 1324.07 3887.08 1340.25 3887.99 1356.65C3889.36 1372.6 3890.04 1388.55 3890.04 1404.5V1493.37V1498.84ZM4024.03 1081.85H4106.74V1567.2C4106.29 1573.58 4105.6 1580.87 4104.69 1589.07C4103.78 1597.28 4103.1 1605.25 4102.64 1613H4024.03V1081.85ZM4361.04 1344.35C4366.51 1365.31 4369.24 1388.33 4369.24 1413.39C4369.24 1439.37 4366.05 1464.66 4359.67 1489.27C4353.75 1513.88 4344.4 1535.75 4331.64 1554.89C4319.34 1573.58 4303.62 1588.62 4284.48 1600.01C4265.79 1610.95 4243.69 1616.42 4218.17 1616.42C4202.22 1616.42 4186.95 1614.6 4172.37 1610.95C4157.78 1607.3 4145.25 1602.29 4134.77 1595.91V1524.82C4141.61 1532.56 4149.58 1538.94 4158.7 1543.96C4168.27 1548.97 4178.75 1551.48 4190.14 1551.48C4203.81 1551.48 4216.12 1548.06 4227.05 1541.22C4238.45 1534.39 4248.02 1525.27 4255.77 1513.88C4263.97 1502.03 4270.35 1488.13 4274.91 1472.18C4279.92 1456.23 4282.43 1439.14 4282.43 1420.91C4282.43 1403.14 4280.15 1386.27 4275.59 1370.32C4271.49 1354.37 4265.56 1340.25 4257.82 1327.94C4250.52 1315.64 4241.41 1305.84 4230.47 1298.55C4219.54 1291.26 4207.23 1287.61 4193.56 1287.61C4181.71 1287.61 4170.77 1290.12 4160.75 1295.13C4151.18 1299.69 4142.52 1306.52 4134.77 1315.64V1242.49C4145.25 1236.57 4156.87 1232.01 4169.63 1228.82C4182.39 1225.63 4195.61 1224.04 4209.28 1224.04C4224.32 1224.04 4239.59 1226.09 4255.08 1230.19C4270.58 1234.29 4284.93 1241.12 4298.15 1250.7C4311.82 1260.27 4324.12 1272.8 4335.06 1288.29C4346.46 1303.79 4355.11 1322.47 4361.04 1344.35Z" fill="white"/>
</g>
<g filter="url(#filter2_d_155_201)">
<path d="M2438.62 1743V1674.47H2456.33C2460.36 1674.47 2463.74 1674.84 2466.45 1675.57C2469.24 1676.3 2471.58 1677.37 2473.49 1678.76C2475.47 1680.15 2477.23 1681.88 2478.77 1683.93C2480.31 1685.98 2481.59 1688.33 2482.62 1690.97C2483.72 1693.54 2484.56 1696.32 2485.15 1699.33C2485.74 1702.34 2486.03 1705.64 2486.03 1709.23C2485.88 1714.44 2485.19 1719.13 2483.94 1723.31C2482.77 1727.42 2480.93 1730.94 2478.44 1733.87C2476.02 1736.8 2472.87 1739.08 2468.98 1740.69C2465.09 1742.23 2460.44 1743 2455.01 1743H2438.62ZM2450.72 1733.32H2454.68C2459.37 1733.32 2463.11 1732.33 2465.9 1730.35C2468.76 1728.3 2470.81 1725.47 2472.06 1721.88C2473.31 1718.29 2473.89 1714.11 2473.82 1709.34C2473.82 1704.28 2473.27 1699.88 2472.17 1696.14C2471.14 1692.4 2469.31 1689.5 2466.67 1687.45C2464.03 1685.4 2460.44 1684.37 2455.89 1684.37H2450.72V1733.32ZM2518.81 1744.21C2515.14 1744.21 2511.73 1743.62 2508.58 1742.45C2505.5 1741.28 2502.79 1739.59 2500.44 1737.39C2498.17 1735.12 2496.41 1732.33 2495.16 1729.03C2493.91 1725.73 2493.29 1721.99 2493.29 1717.81C2493.29 1713.56 2493.91 1709.74 2495.16 1706.37C2496.41 1703 2498.09 1700.14 2500.22 1697.79C2502.42 1695.44 2504.99 1693.68 2507.92 1692.51C2510.85 1691.26 2514.01 1690.64 2517.38 1690.64C2520.39 1690.64 2523.21 1691.15 2525.85 1692.18C2528.49 1693.21 2530.8 1694.78 2532.78 1696.91C2534.83 1698.96 2536.45 1701.57 2537.62 1704.72C2538.79 1707.8 2539.38 1711.39 2539.38 1715.5C2539.38 1716.23 2539.34 1717.11 2539.27 1718.14C2539.27 1719.17 2539.23 1720.05 2539.16 1720.78H2505.28C2505.43 1723.2 2505.9 1725.29 2506.71 1727.05C2507.52 1728.74 2508.58 1730.13 2509.9 1731.23C2511.22 1732.33 2512.69 1733.17 2514.3 1733.76C2515.91 1734.27 2517.6 1734.53 2519.36 1734.53C2520.9 1734.53 2522.37 1734.38 2523.76 1734.09C2525.23 1733.8 2526.58 1733.28 2527.83 1732.55C2529.15 1731.82 2530.4 1730.86 2531.57 1729.69L2537.95 1735.85C2536.34 1737.76 2534.5 1739.37 2532.45 1740.69C2530.47 1741.94 2528.31 1742.82 2525.96 1743.33C2523.69 1743.92 2521.3 1744.21 2518.81 1744.21ZM2505.5 1711.43H2527.28C2527.28 1709.67 2527.02 1708.09 2526.51 1706.7C2526.07 1705.31 2525.41 1704.13 2524.53 1703.18C2523.65 1702.23 2522.55 1701.53 2521.23 1701.09C2519.98 1700.58 2518.52 1700.32 2516.83 1700.32C2515.44 1700.32 2514.08 1700.54 2512.76 1700.98C2511.51 1701.35 2510.38 1702.01 2509.35 1702.96C2508.32 1703.91 2507.48 1705.09 2506.82 1706.48C2506.16 1707.87 2505.72 1709.52 2505.5 1711.43ZM2515.62 1687.56L2509.9 1683.93L2519.03 1665.67L2527.72 1671.94L2515.62 1687.56ZM2566.44 1743L2547.19 1691.85H2560.17L2573.26 1728.48H2571.5L2578.43 1711.76C2579.82 1708.24 2580.92 1704.79 2581.73 1701.42C2582.61 1698.05 2583.16 1694.86 2583.38 1691.85H2595.04C2594.67 1695.08 2593.87 1698.49 2592.62 1702.08C2591.45 1705.67 2590.09 1709.38 2588.55 1713.19L2576.23 1743H2566.44ZM2628.81 1744.21C2625.14 1744.21 2621.73 1743.62 2618.58 1742.45C2615.5 1741.28 2612.79 1739.59 2610.44 1737.39C2608.17 1735.12 2606.41 1732.33 2605.16 1729.03C2603.91 1725.73 2603.29 1721.99 2603.29 1717.81C2603.29 1713.56 2603.91 1709.74 2605.16 1706.37C2606.41 1703 2608.09 1700.14 2610.22 1697.79C2612.42 1695.44 2614.99 1693.68 2617.92 1692.51C2620.85 1691.26 2624.01 1690.64 2627.38 1690.64C2630.39 1690.64 2633.21 1691.15 2635.85 1692.18C2638.49 1693.21 2640.8 1694.78 2642.78 1696.91C2644.83 1698.96 2646.45 1701.57 2647.62 1704.72C2648.79 1707.8 2649.38 1711.39 2649.38 1715.5C2649.38 1716.23 2649.34 1717.11 2649.27 1718.14C2649.27 1719.17 2649.23 1720.05 2649.16 1720.78H2615.28C2615.43 1723.2 2615.9 1725.29 2616.71 1727.05C2617.52 1728.74 2618.58 1730.13 2619.9 1731.23C2621.22 1732.33 2622.69 1733.17 2624.3 1733.76C2625.91 1734.27 2627.6 1734.53 2629.36 1734.53C2630.9 1734.53 2632.37 1734.38 2633.76 1734.09C2635.23 1733.8 2636.58 1733.28 2637.83 1732.55C2639.15 1731.82 2640.4 1730.86 2641.57 1729.69L2647.95 1735.85C2646.34 1737.76 2644.5 1739.37 2642.45 1740.69C2640.47 1741.94 2638.31 1742.82 2635.96 1743.33C2633.69 1743.92 2631.3 1744.21 2628.81 1744.21ZM2615.5 1711.43H2637.28C2637.28 1709.67 2637.02 1708.09 2636.51 1706.7C2636.07 1705.31 2635.41 1704.13 2634.53 1703.18C2633.65 1702.23 2632.55 1701.53 2631.23 1701.09C2629.98 1700.58 2628.52 1700.32 2626.83 1700.32C2625.44 1700.32 2624.08 1700.54 2622.76 1700.98C2621.51 1701.35 2620.38 1702.01 2619.35 1702.96C2618.32 1703.91 2617.48 1705.09 2616.82 1706.48C2616.16 1707.87 2615.72 1709.52 2615.5 1711.43ZM2660.93 1743V1733.21H2675.34V1678.98H2661.59V1669.19H2687.88V1733.21H2702.18V1743H2660.93ZM2736.39 1744.1C2731.84 1744.1 2727.7 1743 2723.96 1740.8C2720.29 1738.53 2717.4 1735.37 2715.27 1731.34C2713.14 1727.31 2712.08 1722.65 2712.08 1717.37C2712.08 1712.31 2713.14 1707.76 2715.27 1703.73C2717.4 1699.7 2720.29 1696.51 2723.96 1694.16C2727.7 1691.81 2731.84 1690.64 2736.39 1690.64C2741.01 1690.64 2745.15 1691.81 2748.82 1694.16C2752.56 1696.51 2755.49 1699.7 2757.62 1703.73C2759.82 1707.76 2760.92 1712.31 2760.92 1717.37C2760.92 1722.65 2759.82 1727.31 2757.62 1731.34C2755.49 1735.37 2752.56 1738.53 2748.82 1740.8C2745.15 1743 2741.01 1744.1 2736.39 1744.1ZM2736.39 1734.2C2738.81 1734.2 2740.9 1733.5 2742.66 1732.11C2744.42 1730.64 2745.81 1728.66 2746.84 1726.17C2747.94 1723.6 2748.49 1720.67 2748.49 1717.37C2748.49 1713.92 2747.94 1710.95 2746.84 1708.46C2745.81 1705.97 2744.42 1704.06 2742.66 1702.74C2740.9 1701.35 2738.81 1700.65 2736.39 1700.65C2734.19 1700.65 2732.17 1701.35 2730.34 1702.74C2728.58 1704.06 2727.15 1705.97 2726.05 1708.46C2725.02 1710.95 2724.51 1713.92 2724.51 1717.37C2724.51 1720.67 2725.02 1723.6 2726.05 1726.17C2727.08 1728.66 2728.47 1730.64 2730.23 1732.11C2732.06 1733.5 2734.12 1734.2 2736.39 1734.2ZM2769.28 1761.37L2769.17 1691.74H2781.49V1698.89C2782.66 1696.98 2783.95 1695.44 2785.34 1694.27C2786.81 1693.02 2788.42 1692.11 2790.18 1691.52C2792.01 1690.93 2793.92 1690.64 2795.9 1690.64C2798.69 1690.64 2801.29 1691.23 2803.71 1692.4C2806.2 1693.5 2808.37 1695.19 2810.2 1697.46C2812.03 1699.73 2813.46 1702.56 2814.49 1705.93C2815.59 1709.23 2816.14 1713.12 2816.14 1717.59C2816.14 1722.06 2815.59 1725.99 2814.49 1729.36C2813.39 1732.73 2811.85 1735.52 2809.87 1737.72C2807.96 1739.92 2805.76 1741.57 2803.27 1742.67C2800.85 1743.77 2798.32 1744.32 2795.68 1744.32C2793.85 1744.32 2792.05 1744.1 2790.29 1743.66C2788.6 1743.22 2787.03 1742.6 2785.56 1741.79C2784.09 1740.91 2782.88 1739.85 2781.93 1738.6V1761.37H2769.28ZM2792.27 1734.64C2793.88 1734.64 2795.39 1734.35 2796.78 1733.76C2798.17 1733.17 2799.38 1732.22 2800.41 1730.9C2801.51 1729.51 2802.35 1727.67 2802.94 1725.4C2803.53 1723.13 2803.82 1720.3 2803.82 1716.93C2803.82 1713.56 2803.38 1710.66 2802.5 1708.24C2801.62 1705.75 2800.37 1703.84 2798.76 1702.52C2797.15 1701.2 2795.2 1700.5 2792.93 1700.43C2791.17 1700.36 2789.59 1700.65 2788.2 1701.31C2786.88 1701.97 2785.74 1703.03 2784.79 1704.5C2783.84 1705.97 2783.1 1707.84 2782.59 1710.11C2782.08 1712.38 2781.82 1715.13 2781.82 1718.36C2781.89 1720.56 2782.08 1722.54 2782.37 1724.3C2782.66 1726.06 2783.07 1727.6 2783.58 1728.92C2784.17 1730.17 2784.86 1731.23 2785.67 1732.11C2786.48 1732.92 2787.43 1733.54 2788.53 1733.98C2789.63 1734.42 2790.88 1734.64 2792.27 1734.64ZM2824.28 1761.37L2824.17 1691.74H2836.49V1698.89C2837.66 1696.98 2838.95 1695.44 2840.34 1694.27C2841.81 1693.02 2843.42 1692.11 2845.18 1691.52C2847.01 1690.93 2848.92 1690.64 2850.9 1690.64C2853.69 1690.64 2856.29 1691.23 2858.71 1692.4C2861.2 1693.5 2863.37 1695.19 2865.2 1697.46C2867.03 1699.73 2868.46 1702.56 2869.49 1705.93C2870.59 1709.23 2871.14 1713.12 2871.14 1717.59C2871.14 1722.06 2870.59 1725.99 2869.49 1729.36C2868.39 1732.73 2866.85 1735.52 2864.87 1737.72C2862.96 1739.92 2860.76 1741.57 2858.27 1742.67C2855.85 1743.77 2853.32 1744.32 2850.68 1744.32C2848.85 1744.32 2847.05 1744.1 2845.29 1743.66C2843.6 1743.22 2842.03 1742.6 2840.56 1741.79C2839.09 1740.91 2837.88 1739.85 2836.93 1738.6V1761.37H2824.28ZM2847.27 1734.64C2848.88 1734.64 2850.39 1734.35 2851.78 1733.76C2853.17 1733.17 2854.38 1732.22 2855.41 1730.9C2856.51 1729.51 2857.35 1727.67 2857.94 1725.4C2858.53 1723.13 2858.82 1720.3 2858.82 1716.93C2858.82 1713.56 2858.38 1710.66 2857.5 1708.24C2856.62 1705.75 2855.37 1703.84 2853.76 1702.52C2852.15 1701.2 2850.2 1700.5 2847.93 1700.43C2846.17 1700.36 2844.59 1700.65 2843.2 1701.31C2841.88 1701.97 2840.74 1703.03 2839.79 1704.5C2838.84 1705.97 2838.1 1707.84 2837.59 1710.11C2837.08 1712.38 2836.82 1715.13 2836.82 1718.36C2836.89 1720.56 2837.08 1722.54 2837.37 1724.3C2837.66 1726.06 2838.07 1727.6 2838.58 1728.92C2839.17 1730.17 2839.86 1731.23 2840.67 1732.11C2841.48 1732.92 2842.43 1733.54 2843.53 1733.98C2844.63 1734.42 2845.88 1734.64 2847.27 1734.64ZM2903.81 1744.21C2900.14 1744.21 2896.73 1743.62 2893.58 1742.45C2890.5 1741.28 2887.79 1739.59 2885.44 1737.39C2883.17 1735.12 2881.41 1732.33 2880.16 1729.03C2878.91 1725.73 2878.29 1721.99 2878.29 1717.81C2878.29 1713.56 2878.91 1709.74 2880.16 1706.37C2881.41 1703 2883.09 1700.14 2885.22 1697.79C2887.42 1695.44 2889.99 1693.68 2892.92 1692.51C2895.85 1691.26 2899.01 1690.64 2902.38 1690.64C2905.39 1690.64 2908.21 1691.15 2910.85 1692.18C2913.49 1693.21 2915.8 1694.78 2917.78 1696.91C2919.83 1698.96 2921.45 1701.57 2922.62 1704.72C2923.79 1707.8 2924.38 1711.39 2924.38 1715.5C2924.38 1716.23 2924.34 1717.11 2924.27 1718.14C2924.27 1719.17 2924.23 1720.05 2924.16 1720.78H2890.28C2890.43 1723.2 2890.9 1725.29 2891.71 1727.05C2892.52 1728.74 2893.58 1730.13 2894.9 1731.23C2896.22 1732.33 2897.69 1733.17 2899.3 1733.76C2900.91 1734.27 2902.6 1734.53 2904.36 1734.53C2905.9 1734.53 2907.37 1734.38 2908.76 1734.09C2910.23 1733.8 2911.58 1733.28 2912.83 1732.55C2914.15 1731.82 2915.4 1730.86 2916.57 1729.69L2922.95 1735.85C2921.34 1737.76 2919.5 1739.37 2917.45 1740.69C2915.47 1741.94 2913.31 1742.82 2910.96 1743.33C2908.69 1743.92 2906.3 1744.21 2903.81 1744.21ZM2890.5 1711.43H2912.28C2912.28 1709.67 2912.02 1708.09 2911.51 1706.7C2911.07 1705.31 2910.41 1704.13 2909.53 1703.18C2908.65 1702.23 2907.55 1701.53 2906.23 1701.09C2904.98 1700.58 2903.52 1700.32 2901.83 1700.32C2900.44 1700.32 2899.08 1700.54 2897.76 1700.98C2896.51 1701.35 2895.38 1702.01 2894.35 1702.96C2893.32 1703.91 2892.48 1705.09 2891.82 1706.48C2891.16 1707.87 2890.72 1709.52 2890.5 1711.43ZM2932.3 1743V1691.85H2942.75V1695.59C2943.63 1694.42 2944.55 1693.46 2945.5 1692.73C2946.45 1692 2947.44 1691.48 2948.47 1691.19C2949.57 1690.82 2950.63 1690.64 2951.66 1690.64C2952.91 1690.64 2954.08 1690.86 2955.18 1691.3C2956.28 1691.67 2957.27 1692.33 2958.15 1693.28C2959.1 1694.16 2959.84 1695.33 2960.35 1696.8C2961.16 1695.41 2962.07 1694.27 2963.1 1693.39C2964.13 1692.44 2965.3 1691.74 2966.62 1691.3C2968.01 1690.86 2969.52 1690.64 2971.13 1690.64C2973.04 1690.64 2974.65 1690.97 2975.97 1691.63C2977.29 1692.29 2978.35 1693.24 2979.16 1694.49C2980.04 1695.74 2980.66 1697.28 2981.03 1699.11C2981.4 1700.94 2981.58 1703 2981.58 1705.27V1743H2970.8V1707.91C2970.8 1705.71 2970.69 1704.02 2970.47 1702.85C2970.25 1701.6 2969.92 1700.76 2969.48 1700.32C2969.04 1699.81 2968.45 1699.55 2967.72 1699.55C2966.77 1699.55 2965.85 1700.03 2964.97 1700.98C2964.09 1701.86 2963.36 1703.11 2962.77 1704.72C2962.26 1706.26 2962 1708.09 2962 1710.22V1743H2951.88V1708.24C2951.88 1704.72 2951.62 1702.37 2951.11 1701.2C2950.6 1700.03 2949.64 1699.44 2948.25 1699.44C2947.59 1699.44 2946.93 1699.66 2946.27 1700.1C2945.68 1700.54 2945.13 1701.2 2944.62 1702.08C2944.18 1702.89 2943.81 1703.95 2943.52 1705.27C2943.23 1706.52 2943.08 1707.95 2943.08 1709.56V1743H2932.3ZM3013.81 1744.21C3010.14 1744.21 3006.73 1743.62 3003.58 1742.45C3000.5 1741.28 2997.79 1739.59 2995.44 1737.39C2993.17 1735.12 2991.41 1732.33 2990.16 1729.03C2988.91 1725.73 2988.29 1721.99 2988.29 1717.81C2988.29 1713.56 2988.91 1709.74 2990.16 1706.37C2991.41 1703 2993.09 1700.14 2995.22 1697.79C2997.42 1695.44 2999.99 1693.68 3002.92 1692.51C3005.85 1691.26 3009.01 1690.64 3012.38 1690.64C3015.39 1690.64 3018.21 1691.15 3020.85 1692.18C3023.49 1693.21 3025.8 1694.78 3027.78 1696.91C3029.83 1698.96 3031.45 1701.57 3032.62 1704.72C3033.79 1707.8 3034.38 1711.39 3034.38 1715.5C3034.38 1716.23 3034.34 1717.11 3034.27 1718.14C3034.27 1719.17 3034.23 1720.05 3034.16 1720.78H3000.28C3000.43 1723.2 3000.9 1725.29 3001.71 1727.05C3002.52 1728.74 3003.58 1730.13 3004.9 1731.23C3006.22 1732.33 3007.69 1733.17 3009.3 1733.76C3010.91 1734.27 3012.6 1734.53 3014.36 1734.53C3015.9 1734.53 3017.37 1734.38 3018.76 1734.09C3020.23 1733.8 3021.58 1733.28 3022.83 1732.55C3024.15 1731.82 3025.4 1730.86 3026.57 1729.69L3032.95 1735.85C3031.34 1737.76 3029.5 1739.37 3027.45 1740.69C3025.47 1741.94 3023.31 1742.82 3020.96 1743.33C3018.69 1743.92 3016.3 1744.21 3013.81 1744.21ZM3000.5 1711.43H3022.28C3022.28 1709.67 3022.02 1708.09 3021.51 1706.7C3021.07 1705.31 3020.41 1704.13 3019.53 1703.18C3018.65 1702.23 3017.55 1701.53 3016.23 1701.09C3014.98 1700.58 3013.52 1700.32 3011.83 1700.32C3010.44 1700.32 3009.08 1700.54 3007.76 1700.98C3006.51 1701.35 3005.38 1702.01 3004.35 1702.96C3003.32 1703.91 3002.48 1705.09 3001.82 1706.48C3001.16 1707.87 3000.72 1709.52 3000.5 1711.43ZM3045.05 1743V1691.85H3057.48V1698.89C3058.73 1697.28 3060.08 1695.85 3061.55 1694.6C3063.02 1693.35 3064.63 1692.4 3066.39 1691.74C3068.22 1691.01 3070.17 1690.64 3072.22 1690.64C3075.23 1690.64 3077.98 1691.37 3080.47 1692.84C3082.96 1694.23 3084.98 1696.51 3086.52 1699.66C3088.06 1702.81 3088.83 1706.96 3088.83 1712.09V1743H3076.4V1712.31C3076.4 1709.45 3076.11 1707.14 3075.52 1705.38C3074.93 1703.62 3074.05 1702.34 3072.88 1701.53C3071.78 1700.65 3070.46 1700.21 3068.92 1700.21C3067.53 1700.21 3066.13 1700.5 3064.74 1701.09C3063.42 1701.6 3062.21 1702.41 3061.11 1703.51C3060.01 1704.61 3059.13 1705.93 3058.47 1707.47C3057.81 1708.94 3057.48 1710.62 3057.48 1712.53V1743H3045.05ZM3126.89 1744.1C3123.96 1744.1 3121.39 1743.62 3119.19 1742.67C3117.06 1741.72 3115.27 1740.18 3113.8 1738.05C3112.41 1735.92 3111.38 1733.1 3110.72 1729.58C3110.13 1726.06 3109.95 1721.7 3110.17 1716.49L3111.6 1679.75L3124.47 1678.1L3125.46 1677.99L3125.57 1678.98C3125.28 1679.49 3124.98 1680.01 3124.69 1680.52C3124.4 1681.03 3124.21 1681.91 3124.14 1683.16L3122.93 1698.34L3123.48 1699.11L3122.6 1716.27C3122.38 1721.04 3122.53 1724.74 3123.04 1727.38C3123.63 1729.95 3124.47 1731.71 3125.57 1732.66C3126.74 1733.61 3128.14 1734.09 3129.75 1734.09C3132.1 1734.09 3134.19 1733.61 3136.02 1732.66C3137.93 1731.71 3139.69 1730.61 3141.3 1729.36L3143.94 1738.38C3141.45 1740.21 3138.77 1741.64 3135.91 1742.67C3133.12 1743.62 3130.12 1744.1 3126.89 1744.1ZM3100.49 1691.85H3139.87L3139.76 1701.64H3100.27L3100.49 1691.85ZM3233.81 1744.21C3230.14 1744.21 3226.73 1743.62 3223.58 1742.45C3220.5 1741.28 3217.79 1739.59 3215.44 1737.39C3213.17 1735.12 3211.41 1732.33 3210.16 1729.03C3208.91 1725.73 3208.29 1721.99 3208.29 1717.81C3208.29 1713.56 3208.91 1709.74 3210.16 1706.37C3211.41 1703 3213.09 1700.14 3215.22 1697.79C3217.42 1695.44 3219.99 1693.68 3222.92 1692.51C3225.85 1691.26 3229.01 1690.64 3232.38 1690.64C3235.39 1690.64 3238.21 1691.15 3240.85 1692.18C3243.49 1693.21 3245.8 1694.78 3247.78 1696.91C3249.83 1698.96 3251.45 1701.57 3252.62 1704.72C3253.79 1707.8 3254.38 1711.39 3254.38 1715.5C3254.38 1716.23 3254.34 1717.11 3254.27 1718.14C3254.27 1719.17 3254.23 1720.05 3254.16 1720.78H3220.28C3220.43 1723.2 3220.9 1725.29 3221.71 1727.05C3222.52 1728.74 3223.58 1730.13 3224.9 1731.23C3226.22 1732.33 3227.69 1733.17 3229.3 1733.76C3230.91 1734.27 3232.6 1734.53 3234.36 1734.53C3235.9 1734.53 3237.37 1734.38 3238.76 1734.09C3240.23 1733.8 3241.58 1733.28 3242.83 1732.55C3244.15 1731.82 3245.4 1730.86 3246.57 1729.69L3252.95 1735.85C3251.34 1737.76 3249.5 1739.37 3247.45 1740.69C3245.47 1741.94 3243.31 1742.82 3240.96 1743.33C3238.69 1743.92 3236.3 1744.21 3233.81 1744.21ZM3220.5 1711.43H3242.28C3242.28 1709.67 3242.02 1708.09 3241.51 1706.7C3241.07 1705.31 3240.41 1704.13 3239.53 1703.18C3238.65 1702.23 3237.55 1701.53 3236.23 1701.09C3234.98 1700.58 3233.52 1700.32 3231.83 1700.32C3230.44 1700.32 3229.08 1700.54 3227.76 1700.98C3226.51 1701.35 3225.38 1702.01 3224.35 1702.96C3223.32 1703.91 3222.48 1705.09 3221.82 1706.48C3221.16 1707.87 3220.72 1709.52 3220.5 1711.43ZM3291.89 1744.1C3288.96 1744.1 3286.39 1743.62 3284.19 1742.67C3282.06 1741.72 3280.27 1740.18 3278.8 1738.05C3277.41 1735.92 3276.38 1733.1 3275.72 1729.58C3275.13 1726.06 3274.95 1721.7 3275.17 1716.49L3276.6 1679.75L3289.47 1678.1L3290.46 1677.99L3290.57 1678.98C3290.28 1679.49 3289.98 1680.01 3289.69 1680.52C3289.4 1681.03 3289.21 1681.91 3289.14 1683.16L3287.93 1698.34L3288.48 1699.11L3287.6 1716.27C3287.38 1721.04 3287.53 1724.74 3288.04 1727.38C3288.63 1729.95 3289.47 1731.71 3290.57 1732.66C3291.74 1733.61 3293.14 1734.09 3294.75 1734.09C3297.1 1734.09 3299.19 1733.61 3301.02 1732.66C3302.93 1731.71 3304.69 1730.61 3306.3 1729.36L3308.94 1738.38C3306.45 1740.21 3303.77 1741.64 3300.91 1742.67C3298.12 1743.62 3295.12 1744.1 3291.89 1744.1ZM3265.49 1691.85H3304.87L3304.76 1701.64H3265.27L3265.49 1691.85ZM3393.86 1744.21C3391 1744.21 3388.29 1743.66 3385.72 1742.56C3383.23 1741.46 3380.99 1739.77 3379.01 1737.5C3377.03 1735.23 3375.45 1732.4 3374.28 1729.03C3373.18 1725.66 3372.63 1721.7 3372.63 1717.15C3372.63 1712.75 3373.18 1708.9 3374.28 1705.6C3375.38 1702.23 3376.88 1699.44 3378.79 1697.24C3380.77 1694.97 3383.04 1693.28 3385.61 1692.18C3388.18 1691.08 3390.96 1690.53 3393.97 1690.53C3395.66 1690.53 3397.27 1690.75 3398.81 1691.19C3400.42 1691.63 3401.85 1692.29 3403.1 1693.17C3404.42 1693.98 3405.48 1695.11 3406.29 1696.58V1669.19H3418.5H3419.6V1670.18C3419.16 1670.62 3418.87 1671.1 3418.72 1671.61C3418.65 1672.12 3418.61 1673 3418.61 1674.25L3418.5 1736.18C3418.5 1737.35 3418.57 1738.49 3418.72 1739.59C3418.87 1740.69 3419.2 1741.83 3419.71 1743H3407.5C3407.13 1742.19 3406.88 1741.53 3406.73 1741.02C3406.58 1740.51 3406.47 1739.99 3406.4 1739.48C3406.4 1738.89 3406.4 1738.2 3406.4 1737.39C3405.52 1738.93 3404.42 1740.21 3403.1 1741.24C3401.78 1742.27 3400.35 1743 3398.81 1743.44C3397.27 1743.95 3395.62 1744.21 3393.86 1744.21ZM3395.95 1734.2C3397.64 1734.2 3399.1 1733.87 3400.35 1733.21C3401.67 1732.48 3402.73 1731.41 3403.54 1730.02C3404.42 1728.63 3405.04 1726.87 3405.41 1724.74C3405.85 1722.54 3406.07 1720.05 3406.07 1717.26C3406.07 1713.45 3405.7 1710.29 3404.97 1707.8C3404.24 1705.23 3403.1 1703.33 3401.56 1702.08C3400.02 1700.83 3398.04 1700.21 3395.62 1700.21C3393.93 1700.21 3392.39 1700.61 3391 1701.42C3389.61 1702.15 3388.47 1703.25 3387.59 1704.72C3386.71 1706.19 3386.01 1707.95 3385.5 1710C3385.06 1712.05 3384.84 1714.36 3384.84 1716.93C3384.84 1720.52 3385.32 1723.6 3386.27 1726.17C3387.3 1728.74 3388.65 1730.72 3390.34 1732.11C3392.03 1733.5 3393.9 1734.2 3395.95 1734.2ZM3453.81 1744.21C3450.14 1744.21 3446.73 1743.62 3443.58 1742.45C3440.5 1741.28 3437.79 1739.59 3435.44 1737.39C3433.17 1735.12 3431.41 1732.33 3430.16 1729.03C3428.91 1725.73 3428.29 1721.99 3428.29 1717.81C3428.29 1713.56 3428.91 1709.74 3430.16 1706.37C3431.41 1703 3433.09 1700.14 3435.22 1697.79C3437.42 1695.44 3439.99 1693.68 3442.92 1692.51C3445.85 1691.26 3449.01 1690.64 3452.38 1690.64C3455.39 1690.64 3458.21 1691.15 3460.85 1692.18C3463.49 1693.21 3465.8 1694.78 3467.78 1696.91C3469.83 1698.96 3471.45 1701.57 3472.62 1704.72C3473.79 1707.8 3474.38 1711.39 3474.38 1715.5C3474.38 1716.23 3474.34 1717.11 3474.27 1718.14C3474.27 1719.17 3474.23 1720.05 3474.16 1720.78H3440.28C3440.43 1723.2 3440.9 1725.29 3441.71 1727.05C3442.52 1728.74 3443.58 1730.13 3444.9 1731.23C3446.22 1732.33 3447.69 1733.17 3449.3 1733.76C3450.91 1734.27 3452.6 1734.53 3454.36 1734.53C3455.9 1734.53 3457.37 1734.38 3458.76 1734.09C3460.23 1733.8 3461.58 1733.28 3462.83 1732.55C3464.15 1731.82 3465.4 1730.86 3466.57 1729.69L3472.95 1735.85C3471.34 1737.76 3469.5 1739.37 3467.45 1740.69C3465.47 1741.94 3463.31 1742.82 3460.96 1743.33C3458.69 1743.92 3456.3 1744.21 3453.81 1744.21ZM3440.5 1711.43H3462.28C3462.28 1709.67 3462.02 1708.09 3461.51 1706.7C3461.07 1705.31 3460.41 1704.13 3459.53 1703.18C3458.65 1702.23 3457.55 1701.53 3456.23 1701.09C3454.98 1700.58 3453.52 1700.32 3451.83 1700.32C3450.44 1700.32 3449.08 1700.54 3447.76 1700.98C3446.51 1701.35 3445.38 1702.01 3444.35 1702.96C3443.32 1703.91 3442.48 1705.09 3441.82 1706.48C3441.16 1707.87 3440.72 1709.52 3440.5 1711.43ZM3450.62 1687.56L3444.9 1683.93L3454.03 1665.67L3462.72 1671.94L3450.62 1687.56ZM3484.28 1761.37L3484.17 1691.74H3496.49V1698.89C3497.66 1696.98 3498.95 1695.44 3500.34 1694.27C3501.81 1693.02 3503.42 1692.11 3505.18 1691.52C3507.01 1690.93 3508.92 1690.64 3510.9 1690.64C3513.69 1690.64 3516.29 1691.23 3518.71 1692.4C3521.2 1693.5 3523.37 1695.19 3525.2 1697.46C3527.03 1699.73 3528.46 1702.56 3529.49 1705.93C3530.59 1709.23 3531.14 1713.12 3531.14 1717.59C3531.14 1722.06 3530.59 1725.99 3529.49 1729.36C3528.39 1732.73 3526.85 1735.52 3524.87 1737.72C3522.96 1739.92 3520.76 1741.57 3518.27 1742.67C3515.85 1743.77 3513.32 1744.32 3510.68 1744.32C3508.85 1744.32 3507.05 1744.1 3505.29 1743.66C3503.6 1743.22 3502.03 1742.6 3500.56 1741.79C3499.09 1740.91 3497.88 1739.85 3496.93 1738.6V1761.37H3484.28ZM3507.27 1734.64C3508.88 1734.64 3510.39 1734.35 3511.78 1733.76C3513.17 1733.17 3514.38 1732.22 3515.41 1730.9C3516.51 1729.51 3517.35 1727.67 3517.94 1725.4C3518.53 1723.13 3518.82 1720.3 3518.82 1716.93C3518.82 1713.56 3518.38 1710.66 3517.5 1708.24C3516.62 1705.75 3515.37 1703.84 3513.76 1702.52C3512.15 1701.2 3510.2 1700.5 3507.93 1700.43C3506.17 1700.36 3504.59 1700.65 3503.2 1701.31C3501.88 1701.97 3500.74 1703.03 3499.79 1704.5C3498.84 1705.97 3498.1 1707.84 3497.59 1710.11C3497.08 1712.38 3496.82 1715.13 3496.82 1718.36C3496.89 1720.56 3497.08 1722.54 3497.37 1724.3C3497.66 1726.06 3498.07 1727.6 3498.58 1728.92C3499.17 1730.17 3499.86 1731.23 3500.67 1732.11C3501.48 1732.92 3502.43 1733.54 3503.53 1733.98C3504.63 1734.42 3505.88 1734.64 3507.27 1734.64ZM3540.93 1743V1733.21H3555.34V1678.98H3541.59V1669.19H3567.88V1733.21H3582.18V1743H3540.93ZM3616.39 1744.1C3611.84 1744.1 3607.7 1743 3603.96 1740.8C3600.29 1738.53 3597.4 1735.37 3595.27 1731.34C3593.14 1727.31 3592.08 1722.65 3592.08 1717.37C3592.08 1712.31 3593.14 1707.76 3595.27 1703.73C3597.4 1699.7 3600.29 1696.51 3603.96 1694.16C3607.7 1691.81 3611.84 1690.64 3616.39 1690.64C3621.01 1690.64 3625.15 1691.81 3628.82 1694.16C3632.56 1696.51 3635.49 1699.7 3637.62 1703.73C3639.82 1707.76 3640.92 1712.31 3640.92 1717.37C3640.92 1722.65 3639.82 1727.31 3637.62 1731.34C3635.49 1735.37 3632.56 1738.53 3628.82 1740.8C3625.15 1743 3621.01 1744.1 3616.39 1744.1ZM3616.39 1734.2C3618.81 1734.2 3620.9 1733.5 3622.66 1732.11C3624.42 1730.64 3625.81 1728.66 3626.84 1726.17C3627.94 1723.6 3628.49 1720.67 3628.49 1717.37C3628.49 1713.92 3627.94 1710.95 3626.84 1708.46C3625.81 1705.97 3624.42 1704.06 3622.66 1702.74C3620.9 1701.35 3618.81 1700.65 3616.39 1700.65C3614.19 1700.65 3612.17 1701.35 3610.34 1702.74C3608.58 1704.06 3607.15 1705.97 3606.05 1708.46C3605.02 1710.95 3604.51 1713.92 3604.51 1717.37C3604.51 1720.67 3605.02 1723.6 3606.05 1726.17C3607.08 1728.66 3608.47 1730.64 3610.23 1732.11C3612.06 1733.5 3614.12 1734.2 3616.39 1734.2ZM3653.24 1743V1733.21H3665.78V1701.64H3653.9V1691.85H3678.32V1733.21H3689.76V1743H3653.24ZM3671.5 1683.38C3669.37 1683.38 3667.54 1682.65 3666 1681.18C3664.46 1679.71 3663.69 1677.95 3663.69 1675.9C3663.69 1673.7 3664.42 1671.9 3665.89 1670.51C3667.36 1669.12 3669.23 1668.42 3671.5 1668.42C3673.55 1668.42 3675.35 1669.15 3676.89 1670.62C3678.5 1672.09 3679.31 1673.85 3679.31 1675.9C3679.31 1677.95 3678.5 1679.71 3676.89 1681.18C3675.35 1682.65 3673.55 1683.38 3671.5 1683.38ZM3702.3 1743V1691.85H3712.75V1695.59C3713.63 1694.42 3714.55 1693.46 3715.5 1692.73C3716.45 1692 3717.44 1691.48 3718.47 1691.19C3719.57 1690.82 3720.63 1690.64 3721.66 1690.64C3722.91 1690.64 3724.08 1690.86 3725.18 1691.3C3726.28 1691.67 3727.27 1692.33 3728.15 1693.28C3729.1 1694.16 3729.84 1695.33 3730.35 1696.8C3731.16 1695.41 3732.07 1694.27 3733.1 1693.39C3734.13 1692.44 3735.3 1691.74 3736.62 1691.3C3738.01 1690.86 3739.52 1690.64 3741.13 1690.64C3743.04 1690.64 3744.65 1690.97 3745.97 1691.63C3747.29 1692.29 3748.35 1693.24 3749.16 1694.49C3750.04 1695.74 3750.66 1697.28 3751.03 1699.11C3751.4 1700.94 3751.58 1703 3751.58 1705.27V1743H3740.8V1707.91C3740.8 1705.71 3740.69 1704.02 3740.47 1702.85C3740.25 1701.6 3739.92 1700.76 3739.48 1700.32C3739.04 1699.81 3738.45 1699.55 3737.72 1699.55C3736.77 1699.55 3735.85 1700.03 3734.97 1700.98C3734.09 1701.86 3733.36 1703.11 3732.77 1704.72C3732.26 1706.26 3732 1708.09 3732 1710.22V1743H3721.88V1708.24C3721.88 1704.72 3721.62 1702.37 3721.11 1701.2C3720.6 1700.03 3719.64 1699.44 3718.25 1699.44C3717.59 1699.44 3716.93 1699.66 3716.27 1700.1C3715.68 1700.54 3715.13 1701.2 3714.62 1702.08C3714.18 1702.89 3713.81 1703.95 3713.52 1705.27C3713.23 1706.52 3713.08 1707.95 3713.08 1709.56V1743H3702.3ZM3783.81 1744.21C3780.14 1744.21 3776.73 1743.62 3773.58 1742.45C3770.5 1741.28 3767.79 1739.59 3765.44 1737.39C3763.17 1735.12 3761.41 1732.33 3760.16 1729.03C3758.91 1725.73 3758.29 1721.99 3758.29 1717.81C3758.29 1713.56 3758.91 1709.74 3760.16 1706.37C3761.41 1703 3763.09 1700.14 3765.22 1697.79C3767.42 1695.44 3769.99 1693.68 3772.92 1692.51C3775.85 1691.26 3779.01 1690.64 3782.38 1690.64C3785.39 1690.64 3788.21 1691.15 3790.85 1692.18C3793.49 1693.21 3795.8 1694.78 3797.78 1696.91C3799.83 1698.96 3801.45 1701.57 3802.62 1704.72C3803.79 1707.8 3804.38 1711.39 3804.38 1715.5C3804.38 1716.23 3804.34 1717.11 3804.27 1718.14C3804.27 1719.17 3804.23 1720.05 3804.16 1720.78H3770.28C3770.43 1723.2 3770.9 1725.29 3771.71 1727.05C3772.52 1728.74 3773.58 1730.13 3774.9 1731.23C3776.22 1732.33 3777.69 1733.17 3779.3 1733.76C3780.91 1734.27 3782.6 1734.53 3784.36 1734.53C3785.9 1734.53 3787.37 1734.38 3788.76 1734.09C3790.23 1733.8 3791.58 1733.28 3792.83 1732.55C3794.15 1731.82 3795.4 1730.86 3796.57 1729.69L3802.95 1735.85C3801.34 1737.76 3799.5 1739.37 3797.45 1740.69C3795.47 1741.94 3793.31 1742.82 3790.96 1743.33C3788.69 1743.92 3786.3 1744.21 3783.81 1744.21ZM3770.5 1711.43H3792.28C3792.28 1709.67 3792.02 1708.09 3791.51 1706.7C3791.07 1705.31 3790.41 1704.13 3789.53 1703.18C3788.65 1702.23 3787.55 1701.53 3786.23 1701.09C3784.98 1700.58 3783.52 1700.32 3781.83 1700.32C3780.44 1700.32 3779.08 1700.54 3777.76 1700.98C3776.51 1701.35 3775.38 1702.01 3774.35 1702.96C3773.32 1703.91 3772.48 1705.09 3771.82 1706.48C3771.16 1707.87 3770.72 1709.52 3770.5 1711.43ZM3815.05 1743V1691.85H3827.48V1698.89C3828.73 1697.28 3830.08 1695.85 3831.55 1694.6C3833.02 1693.35 3834.63 1692.4 3836.39 1691.74C3838.22 1691.01 3840.17 1690.64 3842.22 1690.64C3845.23 1690.64 3847.98 1691.37 3850.47 1692.84C3852.96 1694.23 3854.98 1696.51 3856.52 1699.66C3858.06 1702.81 3858.83 1706.96 3858.83 1712.09V1743H3846.4V1712.31C3846.4 1709.45 3846.11 1707.14 3845.52 1705.38C3844.93 1703.62 3844.05 1702.34 3842.88 1701.53C3841.78 1700.65 3840.46 1700.21 3838.92 1700.21C3837.53 1700.21 3836.13 1700.5 3834.74 1701.09C3833.42 1701.6 3832.21 1702.41 3831.11 1703.51C3830.01 1704.61 3829.13 1705.93 3828.47 1707.47C3827.81 1708.94 3827.48 1710.62 3827.48 1712.53V1743H3815.05ZM3896.89 1744.1C3893.96 1744.1 3891.39 1743.62 3889.19 1742.67C3887.06 1741.72 3885.27 1740.18 3883.8 1738.05C3882.41 1735.92 3881.38 1733.1 3880.72 1729.58C3880.13 1726.06 3879.95 1721.7 3880.17 1716.49L3881.6 1679.75L3894.47 1678.1L3895.46 1677.99L3895.57 1678.98C3895.28 1679.49 3894.98 1680.01 3894.69 1680.52C3894.4 1681.03 3894.21 1681.91 3894.14 1683.16L3892.93 1698.34L3893.48 1699.11L3892.6 1716.27C3892.38 1721.04 3892.53 1724.74 3893.04 1727.38C3893.63 1729.95 3894.47 1731.71 3895.57 1732.66C3896.74 1733.61 3898.14 1734.09 3899.75 1734.09C3902.1 1734.09 3904.19 1733.61 3906.02 1732.66C3907.93 1731.71 3909.69 1730.61 3911.3 1729.36L3913.94 1738.38C3911.45 1740.21 3908.77 1741.64 3905.91 1742.67C3903.12 1743.62 3900.12 1744.1 3896.89 1744.1ZM3870.49 1691.85H3909.87L3909.76 1701.64H3870.27L3870.49 1691.85Z" fill="white"/>
</g>
<defs>
<filter id="filter0_f_155_201" x="0" y="0" width="5553" height="2676" filterUnits="userSpaceOnUse" color-interpolation-filters="sRGB">
<feFlood flood-opacity="0" result="BackgroundImageFix"/>
<feBlend mode="normal" in="SourceGraphic" in2="BackgroundImageFix" result="shape"/>
<feGaussianBlur stdDeviation="250" result="effect1_foregroundBlur_155_201"/>
</filter>
<filter id="filter1_d_155_201" x="1082.62" y="1055.19" width="3290.62" height="720.988" filterUnits="userSpaceOnUse" color-interpolation-filters="sRGB">
<feFlood flood-opacity="0" result="BackgroundImageFix"/>
<feColorMatrix in="SourceAlpha" type="matrix" values="0 0 0 0 0 0 0 0 0 0 0 0 0 0 0 0 0 0 127 0" result="hardAlpha"/>
<feOffset dy="4"/>
<feGaussianBlur stdDeviation="2"/>
<feComposite in2="hardAlpha" operator="out"/>
<feColorMatrix type="matrix" values="0 0 0 0 0 0 0 0 0 0 0 0 0 0 0 0 0 0 1 0"/>
<feBlend mode="normal" in2="BackgroundImageFix" result="effect1_dropShadow_155_201"/>
<feBlend mode="normal" in="SourceGraphic" in2="effect1_dropShadow_155_201" result="shape"/>
</filter>
<filter id="filter2_d_155_201" x="2434.62" y="1665.67" width="1483.32" height="103.7" filterUnits="userSpaceOnUse" color-interpolation-filters="sRGB">
<feFlood flood-opacity="0" result="BackgroundImageFix"/>
<feColorMatrix in="SourceAlpha" type="matrix" values="0 0 0 0 0 0 0 0 0 0 0 0 0 0 0 0 0 0 127 0" result="hardAlpha"/>
<feOffset dy="4"/>
<feGaussianBlur stdDeviation="2"/>
<feComposite in2="hardAlpha" operator="out"/>
<feColorMatrix type="matrix" values="0 0 0 0 0 0 0 0 0 0 0 0 0 0 0 0 0 0 0.25 0"/>
<feBlend mode="normal" in2="BackgroundImageFix" result="effect1_dropShadow_155_201"/>
<feBlend mode="normal" in="SourceGraphic" in2="effect1_dropShadow_155_201" result="shape"/>
</filter>
<linearGradient id="paint0_linear_155_201" x1="4426.76" y1="2176" x2="2722.35" y2="-569.021" gradientUnits="userSpaceOnUse">
<stop stop-color="#01ECF3"/>
<stop offset="1" stop-color="#DA107B"/>
</linearGradient>
<linearGradient id="paint1_linear_155_201" x1="3128" y1="1027.16" x2="3810.78" y2="1210.98" gradientUnits="userSpaceOnUse">
<stop stop-color="#01ECF3"/>
<stop offset="1" stop-color="#DA107B"/>
</linearGradient>
<linearGradient id="paint2_linear_155_201" x1="3197.08" y1="1050.31" x2="3739.35" y2="1203.43" gradientUnits="userSpaceOnUse">
<stop stop-color="#01ECF3"/>
<stop offset="1" stop-color="#DA107B"/>
</linearGradient>
<linearGradient id="paint3_linear_155_201" x1="3129.25" y1="1025.91" x2="3809.53" y2="1212.24" gradientUnits="userSpaceOnUse">
<stop stop-color="#01ECF3"/>
<stop offset="1" stop-color="#DA107B"/>
</linearGradient>
<linearGradient id="paint4_linear_155_201" x1="3129.25" y1="1025.91" x2="3807.03" y2="1208.47" gradientUnits="userSpaceOnUse">
<stop stop-color="#01ECF3"/>
<stop offset="1" stop-color="#DA107B"/>
</linearGradient>
</defs>
</svg>
