<svg width="327" height="291" viewBox="0 0 327 291" fill="none" xmlns="http://www.w3.org/2000/svg">
<path d="M90.7638 254.139C76.2415 254.139 61.7194 241.432 54.4583 235.986C18.1528 210.572 7.2611 201.496 0 196.05V272.291C0 282.315 8.12903 290.444 18.1528 290.444H163.375C173.398 290.444 181.528 282.315 181.528 272.291V196.05C174.266 201.496 163.375 210.572 127.069 235.986C119.808 241.432 105.286 254.139 90.7638 254.139ZM163.375 145.222H18.1528C8.12903 145.222 0 153.351 0 163.375V172.451C14.5222 183.343 12.7069 183.343 65.3499 221.464C70.7957 225.094 81.6874 235.986 90.7638 235.986C99.8401 235.986 110.732 225.094 116.178 223.279C168.821 185.158 167.005 185.158 181.528 174.266V163.375C181.528 153.351 173.398 145.222 163.375 145.222ZM308.597 90.7638H127.069C117.046 90.7638 108.917 98.8928 108.917 108.917V127.069H163.375C182.214 127.069 197.746 141.489 199.516 159.869L199.68 159.744V235.986H308.597C318.62 235.986 326.75 227.857 326.75 217.833V108.917C326.75 98.8928 318.62 90.7638 308.597 90.7638ZM290.444 163.375H254.139V127.069H290.444V163.375ZM90.7638 108.917C90.7638 88.8974 107.05 72.611 127.069 72.611H254.139V18.1528C254.139 8.12903 246.009 0 235.986 0H54.4583C44.4345 0 36.3055 8.12903 36.3055 18.1528V127.069H90.7638V108.917Z" fill="url(#paint0_linear_296_667)"/>
<defs>
<linearGradient id="paint0_linear_296_667" x1="242" y1="230.848" x2="62.1657" y2="-26.4749" gradientUnits="userSpaceOnUse">
<stop stop-color="#01ECF3"/>
<stop offset="1" stop-color="#DA107B"/>
</linearGradient>
</defs>
</svg>
