<svg width="120" height="120" viewBox="0 0 120 120" fill="none" xmlns="http://www.w3.org/2000/svg">
<path fill-rule="evenodd" clip-rule="evenodd" d="M0 60C0 54.4772 4.47715 50 10 50H110C115.523 50 120 54.4772 120 60C120 65.5229 115.523 70 110 70H10C4.47715 70 0 65.5229 0 60Z" fill="url(#paint0_linear_180_515)"/>
<path fill-rule="evenodd" clip-rule="evenodd" d="M60 0C65.5229 0 70 4.47715 70 10V110C70 115.523 65.5228 120 60 120C54.4771 120 50 115.523 50 110V10C50 4.47715 54.4772 0 60 0Z" fill="url(#paint1_linear_180_515)"/>
<defs>
<linearGradient id="paint0_linear_180_515" x1="0" y1="60" x2="120" y2="60" gradientUnits="userSpaceOnUse">
<stop stop-color="#01ECF3"/>
<stop offset="1" stop-color="#DA107B"/>
</linearGradient>
<linearGradient id="paint1_linear_180_515" x1="60" y1="0" x2="60" y2="120" gradientUnits="userSpaceOnUse">
<stop stop-color="#01ECF3"/>
<stop offset="1" stop-color="#DA107B"/>
</linearGradient>
</defs>
</svg>